<?xml version="1.0" encoding="UTF-8"?>
<svg id="Layer_2" data-name="Layer 2" xmlns="http://www.w3.org/2000/svg" viewBox="0 0 370.96 370.96">
  <defs>
    <style>
      .cls-1 {
        fill: #fff;
      }

      .cls-2 {
        fill: #4f39f6;
      }
    </style>
  </defs>
  <g id="Layer_1-2" data-name="Layer 1">
    <g>
      <rect class="cls-2" width="370.96" height="370.96" rx="71.72" ry="71.72"/>
      <path class="cls-1" d="m63.58,288.33v-99.04c0-2.29,1.52-3.81,3.81-3.81h48.76c3.81,0,5.33-3.05,2.29-6.09l-52.57-52.57c-1.52-1.52-2.29-3.81-2.29-5.33v-38.85c0-2.29,1.52-3.81,3.81-3.81h38.85c1.52,0,3.81.76,5.33,2.29l52.57,52.57c3.05,3.05,6.09,1.52,6.09-2.29v-48.76c0-2.29,1.52-3.81,3.81-3.81h80.76c1.52,0,3.81.76,5.33,2.29l44.95,44.95c1.52,1.52,2.29,3.81,2.29,5.33v156.94c0,2.29-1.52,3.81-3.81,3.81h-53.33c-2.29,0-3.81-1.52-3.81-3.81v-126.47c0-1.52-.76-3.81-2.29-5.33l-14.47-14.47c-1.52-1.52-3.81-2.29-5.33-2.29h-49.52c-3.05,0-4.57,1.52-4.57,4.57v37.33c0,2.29-1.52,3.81-3.81,3.81h-37.33c-3.05,0-4.57,1.52-4.57,4.57v98.28c0,2.29-1.52,3.81-3.81,3.81h-53.33c-2.29,0-3.81-1.52-3.81-3.81Z"/>
    </g>
  </g>
</svg>